<?xml version="1.0" encoding="utf-8"?>
<svg version="1.1" id="Layer_1" xmlns="http://www.w3.org/2000/svg" xmlns:xlink="http://www.w3.org/1999/xlink" x="0px" y="0px"
	 viewBox="0 0 32.8 28.6" style="enable-background:new 0 0 32.8 28.6;" xml:space="preserve">
<style type="text/css">
	.st0{fill:#2E235F;}
	.st1{fill:#121321;}
	.st2{fill:#EFD6AC;}
	.st3{opacity:0.9;}
	.st4{opacity:0.46;fill:#2E235F;}
	.st5{fill:none;}
	.st6{opacity:0.56;fill:#2E235F;}
</style>
<rect x="3" y="-6.1" class="st0" width="6" height="3.1"/>
<rect x="12" y="-6.1" class="st1" width="6" height="3.1"/>
<rect x="19.8" y="-6.1" class="st2" width="6" height="3.1"/>
<g class="st3">
	<path class="st0" d="M8.2,14.8l-1.3,4c-0.1,0.4-0.6,0.7-1,0.7h0c-0.7,0-1.3-0.7-1-1.4L10,2.9c0.2-0.4,0.6-0.7,1-0.7h1.1
		c0.5,0,0.9,0.3,1,0.7l5.2,15.1c0.2,0.7-0.3,1.4-1,1.4h-0.1c-0.5,0-0.9-0.3-1-0.7l-1.3-4c-0.2-0.4-0.6-0.7-1-0.7H9.2
		C8.8,14,8.4,14.4,8.2,14.8z M12.6,12.3c0.7,0,1.3-0.7,1-1.4l-1.2-3.5c-0.4-1.1-0.6-2.2-0.9-3.2h-0.1c-0.3,1-0.5,2.1-0.9,3.1
		l-1.2,3.6c-0.2,0.7,0.3,1.4,1,1.4H12.6z"/>
	<path class="st0" d="M21.4,3.3c0-0.6,0.4-1,1-1.1c0.9-0.1,2-0.2,3.3-0.2c2.2,0,3.8,0.5,4.9,1.4c1,0.8,1.5,2.1,1.5,3.6
		c0,1.6-0.5,2.8-1.3,3.7c-1.2,1.3-3.1,1.9-5.3,1.9c-0.2,0-0.5,0-0.7,0c-0.6,0-1.1,0.5-1.1,1.1v4.6c0,0.6-0.5,1.1-1.1,1.1h-0.1
		c-0.6,0-1.1-0.5-1.1-1.1V3.3z M23.6,9.8c0,0.6,0.4,1,1,1.1c0.3,0,0.6,0,0.9,0c2.7,0,4.3-1.3,4.3-3.7c0-2.3-1.6-3.4-4.1-3.4
		c-0.4,0-0.8,0-1.1,0c-0.6,0-1,0.5-1,1.1V9.8z"/>
</g>
<polyline class="st4" points="4.8,21.9 0.8,27.2 4.8,27.2 8.7,21.9 8.7,27.2 12.7,21.9 12.7,20.5 4.8,20.5 "/>
<polyline class="st4" points="17.2,25.8 13.2,20.5 17.2,20.5 21.2,25.8 21.2,20.5 25.1,20.5 25.1,25.8 25.1,27.2 17.2,27.2 "/>
<line class="st5" x1="1.7" y1="-8171.4" x2="1.7" y2="8211.6"/>
<circle class="st6" cx="6.3" cy="2.3" r="1.7"/>
</svg>
