<svg id="Layer_3" data-name="Layer 3" xmlns="http://www.w3.org/2000/svg" viewBox="0 0 480 480"><defs><style>.cls-1{fill:#2f195f;}.cls-2{fill:#b8cbd9;}.cls-3{fill:#e8eff4;}.cls-4{fill:#f5b953;}.cls-5{fill:#f9d18b;}.cls-6{fill:#e4725f;}.cls-7{fill:#fff;}</style></defs><title>project_premium</title><path class="cls-1" d="M176,16H496V464H176Z" transform="translate(-16 -16)"/><path class="cls-2" d="M144,496H464V112H400V48H144Z" transform="translate(-16 -16)"/><path class="cls-3" d="M144,410c127.8-27.79,224-148.84,224-294a321.19,321.19,0,0,0-7.31-68H144Z" transform="translate(-16 -16)"/><path class="cls-4" d="M336,304V496H16V272H88l24,32Z" transform="translate(-16 -16)"/><path class="cls-5" d="M336,352H48L16,496H336Z" transform="translate(-16 -16)"/><path class="cls-6" d="M408,192a24,24,0,0,1,24,24V416l-24,48-24-48V216A24,24,0,0,1,408,192Z" transform="translate(-16 -16)"/><path class="cls-7" d="M408,192a24,24,0,0,0-24,24v24h48V216A24,24,0,0,0,408,192Z" transform="translate(-16 -16)"/><path class="cls-3" d="M464,112,400,48v64Z" transform="translate(-16 -16)"/><path class="cls-6" d="M368,192V160H350.39a79.44,79.44,0,0,0-11.15-27.24L352,120,328,96l-12.76,12.76A79.53,79.53,0,0,0,288,97.61V80H256V97.61a79.44,79.44,0,0,0-27.24,11.15L216,96l-24,24,12.76,12.76A79.53,79.53,0,0,0,193.61,160H176v32h17.61a79.44,79.44,0,0,0,11.15,27.24L192,232l24,24,12.76-12.76A79.53,79.53,0,0,0,256,254.39V272h32V254.39a79.44,79.44,0,0,0,27.24-11.15L328,256l24-24-12.76-12.76A79.53,79.53,0,0,0,350.39,192Z" transform="translate(-16 -16)"/><circle class="cls-7" cx="256" cy="160" r="48"/><path class="cls-4" d="M296,456h16v16H296Z" transform="translate(-16 -16)"/><path class="cls-4" d="M264,456h16v16H264Z" transform="translate(-16 -16)"/><path class="cls-4" d="M232,456h16v16H232Z" transform="translate(-16 -16)"/><path class="cls-6" d="M384,400h48v16H384Z" transform="translate(-16 -16)"/></svg>